<?xml version="1.0" encoding="UTF-8"?>
<svg width="173px" height="173px" viewBox="0 0 173 173" version="1.1" xmlns="http://www.w3.org/2000/svg" xmlns:xlink="http://www.w3.org/1999/xlink">
    <!-- Generator: Sketch 55.2 (78181) - https://sketchapp.com -->
    <title>Bang</title>
    <desc>Created with Sketch.</desc>
    <g id="Bang" stroke="none" stroke-width="1" fill="none" fill-rule="evenodd">
        <rect id="Rectangle" fill="#931430" opacity="0.5" x="0" y="0" width="173" height="173"></rect>
        <path d="M133.482955,137.0855 C132.273955,137.0855 131.454955,136.0715 131.337955,134.9015 L130.245955,125.1515 C130.050955,123.4745 131.844955,121.9145 133.482955,121.9145 C135.159955,121.9145 136.914955,123.4745 136.758955,125.1515 L135.666955,134.9015 C135.549955,136.0715 134.730955,137.0855 133.482955,137.0855 L133.482955,137.0855 Z M132.480125,110 L128.10756,114.81733 C127.551052,115.454333 126.636789,115.653396 125.881528,115.41452 L119.441933,113.4637 L119.402182,119.276347 C119.402182,120.351288 118.607171,121.346604 117.494154,121.466042 L110.776306,122.302108 L113.12159,127.676815 C113.519096,128.592506 113.240842,129.627635 112.485581,130.224824 L107,135.480094 L112.604832,140.854801 C113.280592,141.491803 113.479345,142.487119 113.12159,143.323185 L110.776306,148.697892 L117.494154,149.533958 C118.646921,149.693208 119.481684,150.728337 119.402182,151.882904 L119.441933,157.5363 L125.881528,155.58548 C126.756041,155.306792 127.630553,155.625293 128.187062,156.262295 L132.480125,161 L136.852689,156.18267 C137.448948,155.545667 138.363211,155.346604 139.118472,155.58548 L145.518316,157.5363 L145.597818,151.723653 C145.597818,150.847775 145.876072,149.812646 147.505846,149.533958 L154.223694,148.697892 L151.87841,143.323185 C151.480904,142.407494 151.759158,141.372365 152.474669,140.735363 L158,135.480094 L152.395168,130.145199 C151.719408,129.508197 151.520655,128.512881 151.87841,127.676815 L154.223694,122.302108 L147.505846,121.466042 C146.353079,121.306792 145.518316,120.271663 145.597818,119.117096 L145.518316,113.4637 L139.118472,115.41452 C138.243959,115.693208 137.369447,115.374707 136.812938,114.737705 L132.480125,110 Z M126.282921,111.256376 L131.345645,105.753363 C132.262517,104.796317 133.697619,104.716563 134.614491,105.713486 L139.677215,111.256376 L147.530416,108.863762 C148.965519,108.385239 150.440486,109.422039 150.440486,110.937361 L150.520214,117.79619 L158.253824,118.713359 C159.688926,118.912743 160.605798,120.428066 160.007838,121.783881 L157.097769,128.483202 L163.396275,134.464739 C164.233419,135.342031 164.193555,136.737723 163.316548,137.615015 L157.097769,143.476921 L159.967974,150.096488 C160.605798,151.452303 159.768654,153.087257 158.253824,153.246764 L150.520214,154.20381 L150.440486,161.062639 C150.440486,162.498208 149.045247,163.574884 147.610144,163.136238 L139.677215,160.743624 L134.654355,166.246637 C133.697619,167.203683 132.302381,167.283437 131.385509,166.286514 L126.282921,160.743624 L118.42972,163.136238 C117.034481,163.574884 115.559514,162.538085 115.51965,161.062639 L115.479786,154.20381 L107.746176,153.246764 C106.311074,153.087257 105.394202,151.571934 105.992162,150.176242 L108.862367,143.476921 L102.603725,137.535261 C101.766581,136.618092 101.806445,135.2224 102.683452,134.384985 L108.862367,128.483202 L106.032026,121.863635 C105.394202,120.547697 106.231346,118.912743 107.746176,118.713359 L115.479786,117.79619 L115.51965,110.937361 C115.559514,109.501792 116.954753,108.425116 118.389856,108.863762 L126.282921,111.256376 Z M133.4805,141.2435 C135.2745,141.2435 136.7565,142.6865 136.7565,144.4805 C136.7565,146.2745 135.2745,147.7565 133.4805,147.7565 C131.6865,147.7565 130.2435,146.2745 130.2435,144.4805 C130.2435,142.6865 131.6865,141.2435 133.4805,141.2435 Z" id="Shape" fill="#931430"></path>
    </g>
</svg>