<?xml version="1.0" encoding="UTF-8"?>
<svg width="173px" height="173px" viewBox="0 0 173 173" version="1.1" xmlns="http://www.w3.org/2000/svg" xmlns:xlink="http://www.w3.org/1999/xlink">
    <!-- Generator: Sketch 55.2 (78181) - https://sketchapp.com -->
    <title>Fejlet-Square</title>
    <desc>Created with Sketch.</desc>
    <g id="Fejlet-Square" stroke="none" stroke-width="1" fill="none" fill-rule="evenodd">
        <rect id="Rectangle" fill="#931430" opacity="0.5" x="0" y="0" width="173" height="173"></rect>
        <path d="M157.55684,164 C156.214355,164.009641 154.923576,163.482628 153.971359,162.535947 L134.492683,143.036546 L115.014007,162.521308 C113.003918,164.428605 109.853133,164.428605 107.843044,162.521308 L106.482025,161.159864 C104.505992,159.177311 104.505992,155.969213 106.482025,153.98666 L125.960701,134.501898 L106.482025,115.017136 C104.505992,113.034583 104.505992,109.826485 106.482025,107.843933 L107.843044,106.482488 C109.824978,104.505837 113.032073,104.505837 115.014007,106.482488 L134.492683,125.96725 L153.985993,106.482488 C155.967927,104.505837 159.175022,104.505837 161.156956,106.482488 L162.517975,107.843933 C164.494008,109.826485 164.494008,113.034583 162.517975,115.017136 L143.024665,134.501898 L162.503341,153.98666 C164.479374,155.969213 164.479374,159.177311 162.503341,161.159864 L161.142321,162.521308 C160.19251,163.473355 158.901434,164.005761 157.55684,164 Z M134.492692,139.501564 C134.881183,139.499317 135.254584,139.651882 135.53041,139.925559 L155.992461,160.394292 C156.842298,161.194545 158.168085,161.194545 159.017922,160.394292 L160.377186,159.034584 C161.207605,158.196771 161.207605,156.845948 160.377186,156.008135 L139.915136,135.539402 C139.348448,134.969146 139.348448,134.048163 139.915136,133.477908 L160.377186,113.009174 C161.207605,112.171362 161.207605,110.820538 160.377186,109.982726 L159.017922,108.623017 C158.180383,107.792328 156.83,107.792328 155.992461,108.623017 L135.53041,129.091751 C134.960341,129.658623 134.039659,129.658623 133.46959,129.091751 L113.007539,108.623017 C112.17,107.792328 110.819617,107.792328 109.982078,108.623017 L108.622814,109.982726 C107.792395,110.820538 107.792395,112.171362 108.622814,113.009174 L129.084864,133.477908 C129.651552,134.048163 129.651552,134.969146 129.084864,135.539402 L108.622814,156.008135 C107.792395,156.845948 107.792395,158.196771 108.622814,159.034584 L109.982078,160.394292 C110.828984,161.201903 112.160633,161.201903 113.007539,160.394292 L133.46959,139.925559 C133.741823,139.655453 134.109263,139.503179 134.492692,139.501564 Z" id="Shape" fill="#931430" fill-rule="nonzero"></path>
    </g>
</svg>