<?xml version="1.0" encoding="UTF-8"?>
<svg width="173px" height="173px"
     viewBox="0 0 173 173" version="1.1" xmlns="http://www.w3.org/2000/svg" xmlns:xlink="http://www.w3.org/1999/xlink">
    <!-- Generator: Sketch 55.2 (78181) - https://sketchapp.com -->
    <title>GREEN</title>
    <desc>Created with Sketch.</desc>
    <g id="GREEN" stroke="none" stroke-width="1" fill="none" fill-rule="evenodd">
        <rect id="Rectangle" fill="#708B55" opacity="0.5" x="0" y="0" width="173" height="173"></rect>
        <g id="Group-Copy-2" transform="translate(105.000000, 93.000000)" fill="#708B55" fill-rule="nonzero">
            <ellipse id="Oval" transform="translate(40.706474, 10.011367) rotate(-68.376276) translate(-40.706474, -10.011367) " cx="40.7064743" cy="10.0113671" rx="7.43224419" ry="7.50822633"></ellipse>
            <path d="M55.7084122,31.4897644 L49.0558608,31.1977987 L45.3184723,24.4095971 C44.3467513,22.5848117 42.6275527,21.1249834 40.6841107,20.3220778 L33.7325681,17.6213955 C31.8638739,16.8914813 29.8456842,16.8184899 27.9022422,17.3294298 L19.4557443,19.6651551 C18.7082666,19.8841293 18.0355367,20.3220778 17.58705,20.9790006 L12.429454,28.2781421 C11.3829852,29.8109619 11.7567241,31.8547215 13.3264272,32.8766013 C14.8961304,33.8984811 16.9890679,33.533524 18.0355367,32.0007043 L22.5204028,25.6504512 L27.9022422,24.1176314 L21.1001952,40.7596742 L15.9425991,49.0077041 L4.43144269,47.6938586 C2.26375739,47.4748844 0.320315394,49.0077041 0.0213243177,51.1244552 C-0.202918989,53.2412062 1.36678416,55.138983 3.53446946,55.4309487 L17.5123023,56.9637684 C17.6617978,56.9637684 17.8112933,56.9637684 17.9607889,56.9637684 C19.3062487,56.9637684 20.5769608,56.3068457 21.3244385,55.138983 L27.6032511,45.1391591 L34.5547936,56.0878714 L36.5729834,68.7153863 C36.8719744,70.6131631 38.5911731,72 40.4598674,72 C40.6841107,72 40.8336062,72 41.0578495,71.9270086 C43.2255348,71.6350429 44.7204902,69.6642747 44.4214991,67.5475237 L42.4033093,54.1900946 C42.3285616,53.6791547 42.1043183,53.1682148 41.880075,52.7302663 L35.3770191,42.5844596 L40.6841107,29.8839533 L44.0477603,36.0152322 C44.6457424,37.037112 45.6922112,37.6940347 46.8881755,37.7670261 L55.4841689,38.1319832 C55.5589167,38.1319832 55.5589167,38.1319832 55.6336645,38.1319832 C57.4276109,38.1319832 58.9225663,36.7451463 58.9973141,34.9933524 C59.0720618,33.168567 57.5771065,31.5627558 55.7084122,31.4897644 Z" id="Path"></path>
        </g>
    </g>
</svg>
