<?xml version="1.0" encoding="UTF-8"?>
<svg width="173px" height="173px" viewBox="0 0 173 173" version="1.1" xmlns="http://www.w3.org/2000/svg" xmlns:xlink="http://www.w3.org/1999/xlink">
    <!-- Generator: Sketch 55.2 (78181) - https://sketchapp.com -->
    <title>OK-Square</title>
    <desc>Created with Sketch.</desc>
    <g id="OK-Square" stroke="none" stroke-width="1" fill="none" fill-rule="evenodd">
        <rect id="Rectangle" fill="#708B55" opacity="0.5" x="0" y="0" width="173" height="173"></rect>
        <path d="M154.602629,123.584055 C151.015646,127.195406 147.442458,130.792867 143.855475,134.404218 C138.15769,140.14071 132.446109,145.891092 126.748324,151.627584 C125.451491,152.933226 124.154659,154.238869 122.857826,155.544511 C125.465287,155.544511 128.058952,155.544511 130.666413,155.544511 C125.906762,150.738636 121.147111,145.932761 116.38746,141.126887 C115.725248,140.446286 115.04924,139.779575 114.387027,139.098974 C112.345206,137.043282 108.59267,136.890494 106.578441,139.098974 C104.550415,141.321344 104.398658,144.752127 106.578441,146.960607 C111.338092,151.766482 116.097742,156.572357 120.857393,161.378232 C121.519606,162.058832 122.195614,162.725543 122.857826,163.406144 C124.968628,165.531285 128.555612,165.531285 130.666413,163.406144 C134.253397,159.794793 137.826584,156.197332 141.413567,152.585981 C147.111352,146.849489 152.822933,141.099107 158.520718,135.362615 C159.817551,134.056973 161.114383,132.75133 162.411216,131.445688 C164.453037,129.389996 164.604794,125.611967 162.411216,123.584055 C160.203841,121.556142 156.782411,121.389465 154.602629,123.584055 L154.602629,123.584055 Z" id="Path" fill="#708B55" fill-rule="nonzero"></path>
    </g>
</svg>