<?xml version="1.0" encoding="UTF-8"?>
<svg width="173px" height="173px" viewBox="0 0 173 173" version="1.1" xmlns="http://www.w3.org/2000/svg" xmlns:xlink="http://www.w3.org/1999/xlink">
    <!-- Generator: Sketch 55.2 (78181) - https://sketchapp.com -->
    <title>Venter-Square</title>
    <desc>Created with Sketch.</desc>
    <g id="Venter-Square" stroke="none" stroke-width="1" fill="none" fill-rule="evenodd">
        <rect id="Rectangle" fill-opacity="0.5" fill="#DEC55B" x="0" y="0" width="173" height="173"></rect>
        <g id="Group" transform="translate(111.000000, 105.000000)">
            <path d="M13.0058838,7.05808969 C13.0058838,14.620192 16.4158596,23.5797101 22.1231235,25.4836159 C23.1854722,25.8373756 23.8934867,26.8386068 23.8738741,27.9573228 L23.8516465,29.1654577 C23.8313801,30.2247786 23.1599758,31.1620459 22.1630024,31.5242906 C16.5067312,33.5698307 13.0058838,43.1983594 13.0058838,50.9445211 C13.0058838,50.9627965 13.0006538,50.9817246 13.0006538,51 L39.9993462,51 C39.9993462,50.9817246 39.9928087,50.9627965 39.9928087,50.9445211 C39.9928087,40.8937 35.1785714,33.0150416 30.716707,31.4805601 C29.6798547,31.123537 28.985569,30.1484135 28.9888378,29.0531945 L28.993414,27.9442689 C28.9973366,26.8346906 29.7177724,25.8543456 30.774891,25.5169033 C36.5462228,23.6730453 39.9934625,14.6835032 39.9934625,7.05808969 C39.9934625,7.0378562 40,7.02023349 40,7 L13,7 C13.0006538,7.02023349 13.0058838,7.03850889 13.0058838,7.05808969 Z M34.6666828,45.3085162 C35.7989831,45.3085162 36.7161985,46.2242446 36.7161985,47.354709 C36.7161985,48.4851735 35.7996368,49.4015546 34.6666828,49.4015546 L18.3326634,49.4015546 C17.2003632,49.4015546 16.2824939,48.4851735 16.2824939,47.354709 C16.2824939,46.2242446 17.2003632,45.3085162 18.3326634,45.3085162 L34.6666828,45.3085162 Z M37.4405569,12.2874668 C36.5834867,17.5781971 33.9599758,22.7305564 30.0642615,23.9758949 L22.8514044,23.9491344 C19.0027603,22.6652871 16.4106295,17.5370774 15.5581356,12.2874668 L37.4405569,12.2874668 Z" id="Shape"></path>
            <path d="M53,3.62275489 C53,1.62221775 51.3910446,0 49.4097851,0 L3.59021494,0 C1.60764682,0 0,1.62221775 0,3.62275489 C0,5.62329204 1.60764682,7.24550979 3.59021494,7.24550979 L7.8713843,7.24550979 C7.87072999,7.26597733 7.86549549,7.2838039 7.86549549,7.30427144 C7.86549549,13.9938564 10.3688967,24.3431698 17.0062468,29.0632491 C10.4107727,34.0725149 7.86549549,45.039816 7.86549549,51.6983695 C7.86549549,51.7168563 7.87072999,51.7360034 7.87072999,51.7544902 L3.59021494,51.7544902 C1.60764682,51.7544902 0,53.3773682 0,55.3772451 C0,57.3777823 1.60764682,59 3.59021494,59 L49.4097851,59 C51.3910446,59 53,57.3777823 53,55.3772451 C53,53.3773682 51.3910446,51.7544902 49.4097851,51.7544902 L45.1305786,51.7544902 C45.1305786,51.7360034 45.1345045,51.7168563 45.1345045,51.6983695 C45.1345045,44.9810544 42.5637091,33.9728181 35.9047666,28.997885 C40.42018,25.6478106 45.1345045,18.5191638 45.1345045,7.30427144 C45.1345045,7.2838039 45.1305786,7.26597733 45.1286157,7.24550979 L49.4097851,7.24550979 C51.3910446,7.24550979 53,5.62329204 53,3.62275489 Z M40.0053456,7.30427144 C40.0053456,15.0178937 36.555808,24.1114244 30.7788793,25.9766117 C29.7215096,26.3179575 28.9998025,27.3096429 28.9958766,28.4320565 L28.9912964,29.5538098 C28.9873705,30.6616981 29.6829051,31.6481015 30.7206454,32.0092546 C35.186331,33.5621468 40.0046913,41.5312832 40.0046913,51.6983695 C40.0046913,51.7168563 40.0112344,51.7360034 40.0112344,51.7544902 L12.9894199,51.7544902 C12.9894199,51.7360034 12.9946544,51.7168563 12.9946544,51.6983695 C12.9946544,43.8626023 16.4985,34.1226933 22.1596153,32.0528307 C23.1574425,31.6863956 23.8294219,30.7382863 23.8497056,29.6667114 L23.8719522,28.4446011 C23.8915816,27.3136044 23.1829607,26.3001309 22.1197022,25.9422791 C16.4075505,24.0163494 12.9946544,14.9531899 12.9946544,7.3036112 C12.9946544,7.28314365 12.9894199,7.26531708 12.9887656,7.24484954 L40.0118887,7.24484954 C40.0112344,7.26597733 40.0053456,7.28446414 40.0053456,7.30427144 Z" id="Shape" fill="#DEC55B" fill-rule="nonzero"></path>
            <path d="M22.332457,24.9718562 L29.5840703,25 C33.500717,23.7214653 36.1389818,18.4317623 37,13 L15,13 C15.8570746,18.3888765 18.4631334,23.6531159 22.332457,24.9718562 Z" id="Path" fill="#DEC55B" fill-rule="nonzero"></path>
            <path d="M16,47.9996811 C16,49.1038112 16.9433069,50 18.1069875,50 L34.8936844,50 C36.057365,50 37,49.1044491 37,47.9996811 C37,46.8949131 36.0580369,46 34.8936844,46 L18.1069875,46 C16.9433069,46 16,46.8955509 16,47.9996811 Z" id="Path" fill="#DEC55B" fill-rule="nonzero"></path>
        </g>
    </g>
</svg>